<svg width="1920" height="1080" xmlns="http://www.w3.org/2000/svg">
  <!-- Dark gradient background -->
  <defs>
    <linearGradient id="grad1" x1="0%" y1="0%" x2="100%" y2="100%">
      <stop offset="0%" style="stop-color:#121212;stop-opacity:1" />
      <stop offset="100%" style="stop-color:#000000;stop-opacity:1" />
    </linearGradient>
    
    <!-- Particle effect -->
    <filter id="noise" x="0%" y="0%" width="100%" height="100%">
      <feTurbulence type="fractalNoise" baseFrequency="0.01" numOctaves="3" seed="1" />
      <feDisplacementMap in="SourceGraphic" scale="50" />
    </filter>
  </defs>
  
  <!-- Background -->
  <rect width="100%" height="100%" fill="url(#grad1)" />
  
  <!-- Abstract music visualization elements -->
  <g opacity="0.2">
    <!-- Sound waves -->
    <path d="M0,540 Q480,340 960,540 T1920,540" stroke="#6200ea" stroke-width="2" fill="none" />
    <path d="M0,540 Q480,440 960,540 T1920,540" stroke="#6200ea" stroke-width="3" fill="none" />
    <path d="M0,540 Q480,640 960,540 T1920,540" stroke="#6200ea" stroke-width="2" fill="none" />
    
    <!-- Music bars -->
    <g>
      <rect x="300" y="400" width="20" height="240" rx="10" fill="#bb86fc" opacity="0.7" />
      <rect x="340" y="450" width="20" height="140" rx="10" fill="#bb86fc" opacity="0.5" />
      <rect x="380" y="350" width="20" height="340" rx="10" fill="#bb86fc" opacity="0.8" />
      <rect x="420" y="480" width="20" height="80" rx="10" fill="#bb86fc" opacity="0.4" />
      <rect x="460" y="420" width="20" height="200" rx="10" fill="#bb86fc" opacity="0.6" />
      
      <rect x="1440" y="400" width="20" height="240" rx="10" fill="#bb86fc" opacity="0.7" />
      <rect x="1480" y="450" width="20" height="140" rx="10" fill="#bb86fc" opacity="0.5" />
      <rect x="1520" y="350" width="20" height="340" rx="10" fill="#bb86fc" opacity="0.8" />
      <rect x="1560" y="480" width="20" height="80" rx="10" fill="#bb86fc" opacity="0.4" />
      <rect x="1600" y="420" width="20" height="200" rx="10" fill="#bb86fc" opacity="0.6" />
    </g>
  </g>
  
  <!-- Abstract circular elements -->
  <circle cx="200" cy="200" r="100" fill="#6200ea" opacity="0.1" />
  <circle cx="1720" cy="880" r="150" fill="#bb86fc" opacity="0.1" />
  
  <!-- Subtle texture overlay -->
  <rect width="100%" height="100%" fill="url(#grad1)" opacity="0.3" filter="url(#noise)" />
</svg>